HIERARCHY
ROOT Hips
{
 OFFSET 0.000000 0.000000 0.000000
 CHANNELS 6 Xposition Yposition Zposition Yrotation Xrotation Zrotation
 JOINT Chest
 {
  OFFSET 0.000000 10.761051 -1.195673
  CHANNELS 3 Yrotation Xrotation Zrotation
  JOINT Chest2
  {
   OFFSET 0.000000 10.364821 0.000000
   CHANNELS 3 Yrotation Xrotation Zrotation
   JOINT Chest3
   {
    OFFSET 0.000000 9.471646 0.000000
    CHANNELS 3 Yrotation Xrotation Zrotation
    JOINT Chest4
    {
     OFFSET 0.000000 9.461061 0.000000
     CHANNELS 3 Yrotation Xrotation Zrotation
     JOINT Neck
     {
      OFFSET 0.000000 12.801997 0.000000
      CHANNELS 3 Yrotation Xrotation Zrotation
      JOINT Head
      {
       OFFSET 0.000000 9.781966 0.000000
       CHANNELS 3 Yrotation Xrotation Zrotation
       End Site
       {
        OFFSET 0.000000 18.796749 0.000000
       }
      }
     }
     JOINT RightCollar
     {
      OFFSET -2.785061 7.176174 0.000000
      CHANNELS 3 Yrotation Xrotation Zrotation
      JOINT RightShoulder
      {
       OFFSET -13.854089 0.000000 0.000000
       CHANNELS 3 Yrotation Xrotation Zrotation
       JOINT RightElbow
       {
        OFFSET -29.342944 0.000000 0.000000
        CHANNELS 3 Yrotation Xrotation Zrotation
        JOINT RightWrist
        {
         OFFSET -27.709015 0.000000 0.000000
         CHANNELS 3 Yrotation Xrotation Zrotation
         End Site
         {
          OFFSET -21.012835 0.000000 0.000000
         }
        }
       }
      }
     }
     JOINT LeftCollar
     {
      OFFSET 2.785061 7.176174 0.000000
      CHANNELS 3 Yrotation Xrotation Zrotation
      JOINT LeftShoulder
      {
       OFFSET 13.854089 0.000000 0.000000
       CHANNELS 3 Yrotation Xrotation Zrotation
       JOINT LeftElbow
       {
        OFFSET 29.342944 0.000000 0.000000
        CHANNELS 3 Yrotation Xrotation Zrotation
        JOINT LeftWrist
        {
         OFFSET 27.709015 0.000000 0.000000
         CHANNELS 3 Yrotation Xrotation Zrotation
         End Site
         {
          OFFSET 21.012835 0.000000 0.000000
         }
        }
       }
      }
     }
    }
   }
  }
 }
 JOINT RightHip
 {
  OFFSET -8.847618 0.000000 0.000000
  CHANNELS 3 Yrotation Xrotation Zrotation
  JOINT RightKnee
  {
   OFFSET 0.000000 -46.696406 0.000000
   CHANNELS 3 Yrotation Xrotation Zrotation
   JOINT RightAnkle
   {
    OFFSET 0.000000 -45.821151 0.000000
    CHANNELS 3 Yrotation Xrotation Zrotation
    JOINT RightToe
    {
     OFFSET 0.000000 -7.519742 17.006186
     CHANNELS 3 Yrotation Xrotation Zrotation
     End Site
     {
      OFFSET 0.000000 -2.226805 9.501033
     }
    }
   }
  }
 }
 JOINT LeftHip
 {
  OFFSET 8.847618 0.000000 0.000000
  CHANNELS 3 Yrotation Xrotation Zrotation
  JOINT LeftKnee
  {
   OFFSET 0.000000 -46.696406 0.000000
   CHANNELS 3 Yrotation Xrotation Zrotation
   JOINT LeftAnkle
   {
    OFFSET 0.000000 -45.821151 0.000000
    CHANNELS 3 Yrotation Xrotation Zrotation
    JOINT LeftToe
    {
     OFFSET 0.000000 -7.519742 17.006186
     CHANNELS 3 Yrotation Xrotation Zrotation
     End Site
     {
      OFFSET 0.000000 -2.226805 9.501033
     }
    }
   }
  }
 }
}
MOTION
Frames: 5
Frame Time: 0.016667
0.000000 102.061364 0.000000 0.000000 6.340192 0.000000 0.000000 -6.340192 0.000000 0.000000 -5.826342 0.000000 0.000000 -0.005910 0.000000 0.000000 5.832252 0.000000 0.000000 12.610213 0.000000 0.000000 -9.243752 0.000000 0.000000 0.000000 0.000000 0.000000 0.000000 0.000000 2.309063 0.000000 0.000000 -2.309063 0.000000 0.000000 0.000000 0.000000 0.000000 0.000000 0.000000 0.000000 -2.309063 0.000000 0.000000 2.309063 0.000000 0.000000 0.000000 -3.591006 0.000000 0.000000 1.872585 0.000000 0.000000 -4.621771 0.000000 0.000000 0.000000 0.000000 0.000000 -3.587706 0.000000 0.000000 1.905768 0.000000 0.000000 -4.658254 0.000000 0.000000 0.000000 0.000000
22.010974 101.516384 -26.381317 -6.332241 9.222793 -0.718303 -2.121253 -5.360816 0.936131 -0.970998 -8.213041 0.394767 -0.961904 -2.393437 0.296117 -0.697934 4.041092 0.218659 4.050575 16.437513 0.238737 7.433775 -5.416241 -0.990160 1.383662 5.674395 7.358979 -2.732404 -10.865507 75.374198 12.719377 39.202058 7.061840 -0.589448 10.057385 15.304079 3.368355 4.331113 -9.244315 8.603665 -12.256549 -76.659505 -10.901966 54.053215 -7.588180 2.126000 11.010570 -9.170666 -3.200872 -5.001317 0.106820 -0.060140 -0.898061 0.386868 -4.250316 -2.494723 1.210032 0.001474 -0.711223 -0.237472 1.767652 -5.499641 1.596173 -0.896606 1.149623 -0.114954 3.441005 -4.505199 -1.786203 -0.001462 -0.335473 0.499491
21.970085 101.561036 -26.371741 -6.415765 9.200760 -0.720200 -2.140118 -5.368681 0.933781 -0.979249 -8.216565 0.393457 -0.970071 -2.396974 0.293970 -0.704232 4.038439 0.217006 4.012770 16.440568 0.238824 7.363475 -5.412310 -0.976529 1.389588 5.684840 7.362945 -2.707623 -10.942840 75.335534 12.797750 38.972072 7.050660 -0.584418 10.005675 15.227015 3.364109 4.359814 -9.241793 8.612564 -12.267433 -76.682512 -10.871163 54.079842 -7.569503 2.128191 11.021488 -9.250084 -3.181283 -4.981263 0.120106 -0.031978 -0.890634 0.386952 -4.212849 -2.502040 1.195479 0.001506 -0.712164 -0.242299 1.763341 -5.488108 1.615140 -0.834088 1.195560 -0.118216 3.468998 -4.536220 -1.802472 -0.001456 -0.337261 0.494674
21.954327 101.572921 -26.368661 -6.496535 9.178680 -0.721666 -2.159863 -5.376515 0.932894 -0.987938 -8.220082 0.392793 -0.978672 -2.400507 0.292422 -0.710809 4.035789 0.215802 3.992727 16.437986 0.236986 7.327034 -5.417902 -0.973033 1.398902 5.692442 7.369338 -2.692715 -11.013154 75.289218 12.892683 38.736071 7.056924 -0.577827 9.948133 15.146107 3.360234 4.386931 -9.239117 8.602602 -12.280813 -76.701229 -10.835855 54.081904 -7.532454 2.137503 11.023311 -9.338039 -3.160734 -4.963301 0.131393 -0.003324 -0.879697 0.387510 -4.179140 -2.511770 1.182138 0.001535 -0.711943 -0.247115 1.762851 -5.475777 1.630308 -0.784457 1.242628 -0.120467 3.503451 -4.569316 -1.813234 -0.001439 -0.339037 0.486255
21.921513 101.578092 -26.360423 -6.575416 9.160691 -0.720942 -2.175751 -5.386077 0.930656 -0.994869 -8.224354 0.391560 -0.985530 -2.404790 0.290485 -0.716108 4.032576 0.214311 3.988759 16.432452 0.238164 7.319468 -5.428418 -0.969765 1.403768 5.703149 7.378158 -2.680653 -11.080792 75.246195 12.984103 38.498291 7.063593 -0.565320 9.887892 15.062712 3.355323 4.407222 -9.232891 8.572146 -12.296987 -76.711579 -10.790784 54.070881 -7.478758 2.156317 11.028839 -9.441158 -3.141006 -4.948243 0.144054 0.022615 -0.872266 0.386100 -4.144825 -2.518293 1.165525 0.001554 -0.712704 -0.249874 1.764814 -5.462432 1.640287 -0.735826 1.281449 -0.121875 3.532930 -4.599591 -1.824724 -0.001430 -0.340614 0.480956
